# xmcd CD database file
#
# Track frame offsets:
#	180
#	25379
#	67782
#	101946
#	125197
#	137197
#	141997
#	169972
#	181559
#	193935
#	197235
#
# Disc length: 2975 seconds
#
# Revision: 0
# Processed by: cddbd v1.5.2PL0 Copyright (c) Steve Scherf et al.
# Submitted via: CDex 1.51
#
DISCID=ac0b9d0b
DTITLE=Labirynt - Labirynt
DYEAR=1998
DGENRE=Jazz
TTITLE0=D'Avalos
TTITLE1=Utopian Eyes
TTITLE2=W¹chock Impressions
TTITLE3=Taniec Koz³a
TTITLE4=Woodland Soundscape
TTITLE5=Uwa¿aj Na Wê¿e
TTITLE6=Shadows
TTITLE7=Pawe³'s Gallery #1
TTITLE8=Pawe³'s Gallery #2
TTITLE9=Pawe³'s Gallery #3
TTITLE10=Tango Polskie
EXTD=YEAR: 1998
EXTT0=
EXTT1=
EXTT2=
EXTT3=
EXTT4=
EXTT5=
EXTT6=
EXTT7=
EXTT8=
EXTT9=
EXTT10=
PLAYORDER=
